<svg width="155" height="133" viewBox="0 0 155 133" fill="none" xmlns="http://www.w3.org/2000/svg">
<g clip-path="url(#clip0)">
<path d="M152.913 45.5067C153.095 46.2288 153.266 46.9545 153.425 47.6839H99.3098V45.5067H152.913Z" fill="#E6E6E6"/>
<path d="M151.188 39.7677C150.317 37.2683 149.301 34.8235 148.146 32.4459C147.791 31.7129 147.422 30.9871 147.039 30.2688C146.976 30.1455 146.909 30.0222 146.841 29.8989V46.101H151.518V40.7319L151.188 39.7677Z" fill="#E6E6E6"/>
<path d="M148.146 32.4459H146.841V30.2688H147.039C147.422 30.9864 147.791 31.7122 148.146 32.4459Z" fill="#CCCCCC"/>
<path d="M151.188 39.7677H146.841V41.9449H151.518V40.7319L151.188 39.7677Z" fill="#CCCCCC"/>
<path d="M144.309 27.3007H139.634V46.1012H144.309V27.3007Z" fill="#E6E6E6"/>
<path d="M144.309 30.2693H139.634V32.4462H144.309V30.2693Z" fill="#CCCCCC"/>
<path d="M144.309 39.7684H139.634V41.9453H144.309V39.7684Z" fill="#CCCCCC"/>
<path d="M122.988 27.1913H106.216C105.957 27.1917 105.709 27.2962 105.527 27.4819C105.344 27.6676 105.241 27.9193 105.241 28.1819V45.2205C105.241 45.3174 105.255 45.4137 105.282 45.5067C105.343 45.7103 105.466 45.8886 105.634 46.0154C105.803 46.1423 106.006 46.2109 106.216 46.2111H122.988C123.197 46.2109 123.401 46.1423 123.569 46.0155C123.737 45.8886 123.861 45.7103 123.922 45.5067C123.949 45.4137 123.963 45.3174 123.963 45.2205V28.1819C123.963 27.9193 123.86 27.6676 123.677 27.4819C123.494 27.2962 123.246 27.1917 122.988 27.1913Z" fill="#E6E6E6"/>
<path d="M121.796 28.402H107.408C107.149 28.4024 106.901 28.5069 106.719 28.6926C106.536 28.8783 106.433 29.13 106.432 29.3926V44.0097C106.433 44.2723 106.536 44.524 106.719 44.7097C106.901 44.8954 107.149 44.9999 107.408 45.0003H121.796C122.055 44.9999 122.302 44.8954 122.485 44.7097C122.668 44.524 122.771 44.2723 122.771 44.0097V29.3926C122.771 29.13 122.668 28.8783 122.485 28.6926C122.302 28.5069 122.055 28.4024 121.796 28.402Z" fill="white"/>
<path d="M119.287 30.9513H109.917C109.658 30.9517 109.411 31.0562 109.228 31.2419C109.045 31.4276 108.942 31.6793 108.942 31.9419V41.4606C108.942 41.7232 109.045 41.975 109.228 42.1607C109.411 42.3463 109.658 42.4508 109.917 42.4512H119.287C119.545 42.4499 119.792 42.3451 119.975 42.1596C120.157 41.9741 120.261 41.7229 120.262 41.4606V31.9419C120.262 31.6793 120.159 31.4276 119.976 31.2419C119.793 31.0562 119.545 30.9517 119.287 30.9513Z" fill="#CCCCCC"/>
<path d="M118.709 39.7817L116.73 36.2994C116.692 36.2324 116.637 36.1769 116.571 36.1382C116.506 36.0996 116.431 36.0792 116.355 36.0792C116.279 36.0792 116.204 36.0996 116.138 36.1382C116.072 36.1769 116.017 36.2324 115.979 36.2994L114.534 38.8422L112.639 35.5077C112.601 35.4408 112.546 35.3852 112.48 35.3466C112.415 35.3079 112.34 35.2876 112.264 35.2876C112.188 35.2876 112.113 35.3079 112.047 35.3466C111.981 35.3852 111.926 35.4408 111.888 35.5077L109.909 38.9901L107.555 43.1328H112.096L111.646 43.9245H121.064L118.709 39.7817Z" fill="white"/>
<path d="M118.011 34.4251C118.764 34.4251 119.374 33.8049 119.374 33.0398C119.374 32.2748 118.764 31.6545 118.011 31.6545C117.257 31.6545 116.647 32.2748 116.647 33.0398C116.647 33.8049 117.257 34.4251 118.011 34.4251Z" fill="white"/>
<path d="M154.983 60.8898C154.968 60.0357 154.934 59.186 154.883 58.3406C154.861 57.9356 154.835 57.5327 154.803 57.1299H145.654C145.396 57.1303 145.148 57.2348 144.965 57.4205C144.782 57.6062 144.679 57.8579 144.679 58.1205V75.1591C144.678 75.237 144.688 75.3147 144.707 75.3902C144.758 75.6063 144.879 75.7987 145.051 75.9364C145.223 76.0741 145.435 76.1492 145.654 76.1497H154.088C154.131 75.8987 154.172 75.6434 154.209 75.3902C154.233 75.2405 154.257 75.0886 154.279 74.9389C154.33 74.5801 154.38 74.2213 154.426 73.8625C154.491 73.3738 154.549 72.8829 154.601 72.3898C154.792 70.6221 154.915 68.8353 154.97 67.0294V67.0272C154.989 66.347 154.999 65.6638 155 64.9778V62.3361C155 61.8518 154.996 61.3697 154.983 60.8898Z" fill="#E6E6E6"/>
<path d="M154.983 60.8898C154.968 60.0356 154.934 59.1859 154.883 58.3406H146.846C146.587 58.341 146.34 58.4455 146.157 58.6312C145.974 58.8168 145.871 59.0686 145.871 59.3312V73.9483C145.871 74.2109 145.974 74.4626 146.157 74.6483C146.34 74.834 146.587 74.9385 146.846 74.9389H154.278C154.33 74.5801 154.38 74.2213 154.426 73.8624C154.491 73.3737 154.549 72.8828 154.601 72.3897C154.792 70.622 154.915 68.8353 154.97 67.0294V67.0272C154.989 66.347 154.999 65.6638 155 64.9777V62.3361C155 61.8518 154.996 61.3697 154.983 60.8898Z" fill="white"/>
<path d="M154.983 60.8899H149.355C149.097 60.8903 148.849 60.9948 148.666 61.1805C148.483 61.3662 148.38 61.6179 148.38 61.8805V71.3992C148.38 71.6618 148.483 71.9136 148.666 72.0993C148.849 72.2849 149.097 72.3894 149.355 72.3898H154.601C154.792 70.6221 154.915 68.8354 154.97 67.0295V67.0273C154.989 66.3471 154.999 65.6639 155 64.9778V62.3362C155 61.8519 154.996 61.3698 154.983 60.8899Z" fill="#CCCCCC"/>
<path d="M154.97 67.0294C154.916 68.8345 154.793 70.6213 154.601 72.3897C154.549 72.8828 154.491 73.3737 154.426 73.8624H151.084L151.535 73.0721H146.993L148.38 70.6308L149.347 68.9292L151.327 65.4466C151.365 65.3794 151.419 65.3235 151.485 65.2847C151.551 65.2458 151.626 65.2253 151.702 65.2253C151.778 65.2253 151.853 65.2458 151.919 65.2847C151.985 65.3235 152.039 65.3794 152.077 65.4466L153.973 68.7817L154.97 67.0294Z" fill="white"/>
<path d="M138.551 17.8025H99.3098V15.6254H136.605C137.268 16.3364 137.917 17.0621 138.551 17.8025Z" fill="#E6E6E6"/>
<path d="M120.154 2.70325C121.753 3.597 123.312 4.55459 124.83 5.57603V16.2174H120.154V2.70325Z" fill="#E6E6E6"/>
<path d="M124.829 9.8855H120.153V12.0624H124.829V9.8855Z" fill="#CCCCCC"/>
<path d="M132.037 11.1676V16.2175H127.361V7.36584C128.451 8.17376 129.516 9.01394 130.557 9.88641C131.055 10.3047 131.549 10.7317 132.037 11.1676Z" fill="#E6E6E6"/>
<path d="M132.037 11.1676V12.0613H127.361V9.88635H130.557C131.055 10.3046 131.549 10.7317 132.037 11.1676Z" fill="#CCCCCC"/>
<path d="M115.38 0.277374C116.617 0.843113 117.833 1.44629 119.029 2.0869L118.067 4.05932L114.871 10.6216L113.919 12.572L112.431 15.6253L112.103 16.2967L110.771 15.6253L107.915 14.1878L109.728 10.4631H109.731L110.68 8.51269L113.878 1.95041L114.819 0.022015L114.829 0L115.38 0.277374Z" fill="#E6E6E6"/>
<path d="M119.018 2.10671L118.067 4.05932L113.878 1.95041L114.819 0.0220137L114.829 0L115.38 0.277372L119.018 2.10671Z" fill="#CCCCCC"/>
<path d="M110.68 8.51333L109.729 10.4642L113.919 12.5716L114.87 10.6207L110.68 8.51333Z" fill="#CCCCCC"/>
<path d="M154.209 75.3903C154.172 75.6434 154.131 75.8988 154.088 76.1497C154.012 76.6252 153.929 77.0963 153.841 77.5674H99.3098V75.3903H154.209Z" fill="#E6E6E6"/>
<path d="M124.829 57.1837H120.153V75.9843H124.829V57.1837Z" fill="#E6E6E6"/>
<path d="M124.829 60.1522H120.153V62.3291H124.829V60.1522Z" fill="#CCCCCC"/>
<path d="M124.829 69.6515H120.153V71.8284H124.829V69.6515Z" fill="#CCCCCC"/>
<path d="M132.037 57.1837H127.361V75.9843H132.037V57.1837Z" fill="#E6E6E6"/>
<path d="M132.037 60.1522H127.361V62.3291H132.037V60.1522Z" fill="#CCCCCC"/>
<path d="M132.037 69.6515H127.361V71.8284H132.037V69.6515Z" fill="#CCCCCC"/>
<path d="M116.125 57.106L107.914 73.9547L112.104 76.0621L120.315 59.2133L116.125 57.106Z" fill="#E6E6E6"/>
<path d="M114.829 59.7664L113.878 61.7173L118.068 63.8247L119.019 61.8737L114.829 59.7664Z" fill="#CCCCCC"/>
<path d="M110.68 68.2793L109.729 70.2302L113.919 72.3376L114.87 70.3867L110.68 68.2793Z" fill="#CCCCCC"/>
<path d="M63.4474 83.78C63.6428 83.8942 63.829 84.0239 64.0044 84.1679L83.2963 78.0688L84.3842 73.2064L91.8222 73.9152L90.7198 82.7132C90.6308 83.424 90.3172 84.0863 89.8261 84.6005C89.335 85.1148 88.693 85.4534 87.9963 85.5654L65.2927 89.2171C64.9614 90.0326 64.3937 90.7264 63.6648 91.2061C62.936 91.6859 62.0807 91.9288 61.2126 91.9027C60.3445 91.8765 59.5049 91.5825 58.8053 91.0597C58.1058 90.537 57.5794 89.8102 57.2964 88.9762C57.0133 88.1421 56.9869 87.2402 57.2207 86.3906C57.4544 85.5409 57.9373 84.7836 58.6051 84.2196C59.2728 83.6555 60.0938 83.3113 60.9588 83.2328C61.8238 83.1543 62.6918 83.3451 63.4474 83.78Z" fill="#FFB8B8"/>
<path d="M95.2598 76.8321L95.132 74.6131V74.6109L95.0973 74.0034L94.7203 67.4697C94.8331 66.1076 94.41 64.7556 93.5437 63.7097C92.6774 62.6638 91.4385 62.0092 90.0982 61.8893C89.7126 61.8541 89.3243 61.8645 88.941 61.9201C87.8025 62.0836 86.7517 62.6331 85.9592 63.4794C85.1666 64.3257 84.6787 65.4192 84.5746 66.5826L83.7923 69.889L82.425 75.672C82.3282 76.0766 82.3683 76.5026 82.5389 76.8812C82.7095 77.2598 83.0007 77.569 83.3655 77.7589C83.5761 77.8715 83.8067 77.9403 84.0437 77.9614L86.3234 78.1684L88.5185 78.3665L91.0516 78.5954L91.2337 78.6108L91.7017 78.6549L93.2684 78.7957H93.2727C93.5344 78.8172 93.7976 78.7819 94.0449 78.6924C94.2922 78.6028 94.5179 78.461 94.7072 78.2762C94.8452 78.1397 94.9614 77.9823 95.0518 77.8095C95.2098 77.5099 95.2819 77.1713 95.2598 76.8321V76.8321Z" fill="#00BFA6"/>
<path d="M116.43 49.9254C116.43 57.4596 109.572 56.3201 101.113 56.3201C92.6535 56.3201 85.7958 57.4596 85.7958 49.9254C85.7958 42.3911 89.1456 29.0361 101.113 29.0361C113.492 29.0361 116.43 42.3911 116.43 49.9254Z" fill="#2F2E41"/>
<path d="M108.35 53.2407C112.375 49.1516 112.375 42.522 108.35 38.4329C104.325 34.3439 97.7986 34.3439 93.7736 38.4329C89.7485 42.522 89.7485 49.1516 93.7736 53.2407C97.7986 57.3297 104.325 57.3297 108.35 53.2407Z" fill="#FFB8B8"/>
<path d="M115.57 60.7093C115.372 60.5151 115.161 60.3342 114.94 60.1677C113.539 59.0923 111.778 58.6187 110.036 58.8491L91.0429 61.2904C89.3031 61.5099 87.7159 62.409 86.6176 63.7971C85.5194 65.1853 84.9964 66.9534 85.1597 68.7266C85.2139 69.343 85.2746 69.9924 85.3417 70.6683C85.4284 71.5158 85.5259 72.4051 85.6386 73.3253C85.8249 74.8729 86.0525 76.5063 86.3234 78.1683C86.5595 79.5992 86.8283 81.0499 87.136 82.483C87.2248 82.8968 87.3173 83.3092 87.4133 83.7202C87.4131 83.7214 87.4133 83.7226 87.4136 83.7237C87.414 83.7249 87.4147 83.7259 87.4155 83.7268C87.4263 83.7774 87.4371 83.828 87.4501 83.8765C87.4495 83.8803 87.4503 83.8842 87.4523 83.8875C87.5867 84.4598 87.7276 85.0256 87.8749 85.5847C87.9312 85.7917 87.9854 85.9964 88.0417 86.1989C88.1934 86.7492 88.3538 87.2886 88.5184 87.8191C89.7558 91.7662 91.3918 95.1276 93.5522 96.9152C93.5804 96.9416 93.6086 96.9636 93.6389 96.9878L93.7257 97.056L93.8513 97.0164L94.3843 96.8557L94.8394 96.7148L100.768 94.9031L102.244 94.4518L106.985 93.0011H106.987L111.323 91.6759L111.852 91.513L115.577 90.3749L115.696 88.9616L115.857 87.086L115.952 85.9589L116.706 77.0698L117.146 71.8834L117.623 66.2523C117.711 65.2312 117.573 64.203 117.218 63.2435C116.862 62.2841 116.299 61.418 115.57 60.7093Z" fill="#2F2E41"/>
<path d="M126.191 103.722C126.141 103.574 126.093 103.427 126.043 103.282C123.816 96.6774 120.531 91.6825 115.696 88.9616C115.694 88.9616 115.694 88.9594 115.692 88.9594L115.609 88.9132L111.397 90.3947L110.877 90.5774L110.335 90.769L110.329 90.7712L106.385 92.158L106.378 92.1602L103.284 93.2477H103.282L100.419 94.2537H100.417L99.7518 94.4893L94.7484 96.2482L94.1676 96.4529L93.6475 96.6356L93.5673 96.6642L93.5522 96.9152L93.1947 103.282L93.1709 103.722L92.7245 111.667L77.9005 133H88.0417C91.4397 133.001 94.8329 132.738 98.1917 132.214L107.707 121.797C107.786 121.713 107.887 121.653 107.998 121.623C108.109 121.593 108.226 121.595 108.336 121.627C108.446 121.66 108.546 121.723 108.623 121.808C108.701 121.894 108.754 122 108.777 122.114L110.175 129.159C117.06 126.685 123.502 123.085 129.244 118.5C128.576 113.029 127.601 108.043 126.191 103.722Z" fill="#2F2E41"/>
<path d="M89.153 44.8096H93.2295L95.028 39.6938L95.3876 44.8096H97.336L98.3851 41.8254L98.5949 44.8096H113.073C113.073 43.354 112.79 41.9126 112.242 40.5679C111.694 39.2231 110.89 38.0012 109.877 36.9719C108.864 35.9427 107.661 35.1262 106.337 34.5692C105.014 34.0122 103.595 33.7255 102.162 33.7255H100.064C97.17 33.7255 94.3948 34.8933 92.3486 36.9719C90.3025 39.0506 89.153 41.8699 89.153 44.8096Z" fill="#2F2E41"/>
<path d="M64.0783 100.285C63.4128 100.569 62.694 100.701 61.9727 100.673C61.2513 100.644 60.5449 100.455 59.9033 100.119C59.2616 99.7832 58.7002 99.3083 58.2587 98.7281C57.8172 98.1479 57.5063 97.4764 57.3479 96.7609L39.9116 94.7548L45.7564 87.6443L61.4182 90.6395C62.6191 90.4488 63.847 90.7123 64.8694 91.3799C65.8918 92.0475 66.6376 93.073 66.9655 94.2619C67.2934 95.4509 67.1806 96.7207 66.6484 97.8308C66.1163 98.9409 65.2018 99.8141 64.0783 100.285L64.0783 100.285Z" fill="#A0616A"/>
<path d="M54.6774 87.1235L47.3076 85.7851L46.7724 85.6883C46.3447 85.6106 45.938 85.442 45.5791 85.1933C45.2201 84.9447 44.917 84.6217 44.6896 84.2456C44.4622 83.8695 44.3157 83.4488 44.2598 83.0111C44.2039 82.5734 44.2397 82.1286 44.365 81.706L47.9837 69.4906L48.0921 69.1274C48.5439 67.5748 48.4634 65.9123 47.8639 64.4122C47.2643 62.9121 46.1812 61.6632 44.7918 60.8701C43.8514 60.3395 42.8031 60.0365 41.7286 59.9846C40.6541 59.9327 39.5823 60.1332 38.5965 60.5707C37.6107 61.0082 36.7375 61.6707 36.0449 62.5069C35.3523 63.343 34.8588 64.3302 34.6029 65.3917L29.9874 84.5281L29.8162 85.237C29.4938 86.5723 29.4586 87.9625 29.7131 89.3128C29.9676 90.6631 30.5057 91.9418 31.2907 93.0618C32.0758 94.1817 33.0893 95.1164 34.2622 95.8023C35.4351 96.4882 36.7398 96.9091 38.0874 97.0363C38.1025 97.0385 38.1155 97.0385 38.1307 97.0407L40.8936 97.2895L44.4776 97.6131L48.9849 98.0203L53.1909 98.4011C53.7418 98.4519 54.2914 98.2904 54.7305 97.9486C55.1697 97.6069 55.4663 97.11 55.5616 96.5564C55.568 96.5256 55.5723 96.4948 55.5767 96.4639L56.4695 89.6925L56.4782 89.6309C56.5551 89.0576 56.4106 88.4762 56.0749 88.0088C55.7392 87.5413 55.2383 87.2241 54.6774 87.1235Z" fill="#CCCCCC"/>
<path d="M43.3231 35.8165C40.3811 41.6926 38.0624 47.7532 31.5731 47.7532C28.4568 47.7532 25.4681 46.4956 23.2646 44.2571C21.061 42.0185 19.8231 38.9823 19.8231 35.8165C19.8231 29.224 25.0842 23.9623 31.5731 23.8798C38.1681 23.7959 48.7989 24.8793 43.3231 35.8165Z" fill="#2F2E41"/>
<path d="M50.7033 112.688L50.4367 109.985L50.2374 109.996L15.2002 111.71L15.2912 114.447L15.4451 119.133C20.8666 123.329 26.8872 126.658 33.2984 129.007L33.526 127.215C33.5459 127.069 33.6149 126.934 33.7212 126.834C33.8275 126.734 33.9647 126.674 34.1095 126.664C34.2544 126.655 34.3979 126.697 34.5158 126.783C34.6338 126.869 34.7189 126.993 34.7568 127.135L35.448 129.753C41.033 131.583 46.8328 132.649 52.6947 132.925L50.7033 112.688Z" fill="#2F2E41"/>
<path d="M39.4394 44.919C43.4645 40.83 43.4645 34.2003 39.4394 30.1113C35.4143 26.0222 28.8883 26.0222 24.8633 30.1113C20.8382 34.2003 20.8382 40.83 24.8633 44.919C28.8883 49.008 35.4143 49.008 39.4394 44.919Z" fill="#A0616A"/>
<path d="M52.7164 110.167L50.673 103.722L50.6383 103.612L50.5343 103.282L49.9514 101.446C49.7628 100.849 49.583 100.25 49.4161 99.6493C49.2623 99.1077 49.1185 98.5647 48.9849 98.0203C48.7943 97.263 48.6209 96.5028 48.4649 95.7396C47.9361 93.1752 47.5834 90.5764 47.4096 87.9622C47.3618 87.238 47.3279 86.5122 47.3077 85.7851C47.1808 81.3279 47.5758 76.8711 48.4844 72.5086C49.2753 68.7362 48.8529 64.8054 47.2791 61.2952C45.7054 57.7851 43.0637 54.8811 39.743 53.0111C37.564 51.7877 35.1522 51.0528 32.6701 50.856C32.4989 50.8428 32.3277 50.8318 32.1544 50.8208C29.5324 50.6524 26.9067 51.0845 24.471 52.0851C22.0354 53.0856 19.8521 54.6291 18.0823 56.6015C17.1343 57.6505 16.311 58.8091 15.6292 60.0533C13.7376 63.5156 13.0275 67.5167 13.6097 71.4322L16.0453 88.0459L15.4906 95.0396L14.8362 103.282L14.8015 103.722L14.1037 112.51C14.0707 112.919 14.1683 113.329 14.3821 113.678C14.596 114.027 14.9147 114.296 15.2912 114.447C15.5117 114.537 15.7471 114.582 15.9847 114.581C16.0194 114.581 16.0518 114.581 16.0865 114.579L50.7033 112.688L51.0197 112.67C51.3085 112.655 51.5899 112.573 51.8423 112.429C52.0946 112.286 52.3112 112.086 52.4752 111.844C52.6392 111.602 52.7462 111.325 52.7881 111.034C52.8299 110.743 52.8054 110.447 52.7164 110.167L52.7164 110.167Z" fill="#CCCCCC"/>
<path d="M43.0885 31.5977C40.7333 33.2468 37.9377 34.1245 35.0772 34.1129C36.0976 34.8316 37.2592 35.3171 38.4821 35.5359C34.6788 36.3647 30.7482 36.3871 26.936 35.6018C26.0886 35.4638 25.271 35.1785 24.519 34.7585C23.787 34.3071 23.1747 33.5883 23.027 32.7315C22.7737 31.2613 23.9014 29.9257 25.0732 29.0255C26.8674 27.6684 28.9362 26.7333 31.1297 26.288C33.3233 25.8427 35.5869 25.8983 37.7567 26.4507C39.1736 26.8228 40.5929 27.4514 41.5132 28.6073C42.4334 29.7632 42.706 31.5452 41.8293 32.7355L43.0885 31.5977Z" fill="#2F2E41"/>
<path d="M43.6155 98.1067C42.9562 98.4053 42.2404 98.5535 41.5186 98.5407C40.7968 98.5279 40.0866 98.3545 39.4379 98.0327C38.7892 97.7109 38.2178 97.2486 37.7641 96.6782C37.3103 96.1078 36.9852 95.4433 36.8116 94.7314L19.3365 93.1093L25.0285 85.8719L40.7505 88.5219C41.947 88.3049 43.1802 88.5413 44.2166 89.1863C45.253 89.8313 46.0205 90.8401 46.3737 92.0215C46.7268 93.203 46.6411 94.475 46.1328 95.5965C45.6244 96.718 44.7287 97.6112 43.6155 98.1067L43.6155 98.1067Z" fill="#A0616A"/>
<path d="M33.9377 85.1554L29.9874 84.5281L26.0024 83.8941C25.5732 83.8259 25.163 83.6663 24.7989 83.4258C24.4347 83.1852 24.1248 82.8691 23.8894 82.4982C23.6541 82.1273 23.4986 81.71 23.4333 81.2737C23.368 80.8374 23.3942 80.392 23.5104 79.9668L26.9688 67.309C27.3873 65.7468 27.2714 64.0865 26.6399 62.6C26.0085 61.1135 24.899 59.8888 23.493 59.1265C22.5433 58.6117 21.4885 58.3288 20.4124 58.3001C19.3363 58.2715 18.2685 58.4979 17.2935 58.9614C16.3155 59.4176 15.4551 60.0982 14.7801 60.9497C14.1051 61.8012 13.634 62.8003 13.4038 63.8682L9.04175 83.8148C8.74791 85.1603 8.74366 86.5544 9.0293 87.9017C9.31494 89.249 9.88372 90.5178 10.6967 91.6211C11.5097 92.7244 12.5478 93.6363 13.7398 94.2943C14.9319 94.9523 16.2498 95.341 17.6034 95.4336L32.6917 96.4617C33.2434 96.4999 33.7892 96.3264 34.2209 95.9754C34.6527 95.6244 34.939 95.1215 35.0233 94.5663C35.0298 94.5355 35.0319 94.5047 35.0363 94.4738L35.7839 87.6848L35.7904 87.6232C35.8548 87.0485 35.698 86.4707 35.3527 86.0107C35.0074 85.5508 34.5003 85.2443 33.9377 85.1554Z" fill="#CCCCCC"/>
<path d="M100.783 74.6329L99.8784 75.1341L88.7378 81.3092L87.8336 81.8105C87.3948 82.0543 87.0692 82.465 86.9281 82.9525C86.7871 83.44 86.8421 83.9644 87.0812 84.4106L95.3773 99.8572C95.6173 100.303 96.0216 100.634 96.5015 100.777C96.9813 100.92 97.4975 100.864 97.9368 100.622L97.9391 100.62L110.884 93.4453L110.886 93.444C111.325 93.2001 111.65 92.7894 111.791 92.302C111.932 91.8145 111.877 91.2901 111.638 90.8438L103.342 75.3973C103.102 74.9516 102.698 74.6207 102.218 74.4774C101.738 74.3341 101.222 74.39 100.783 74.6329Z" fill="#E6E6E6"/>
<path d="M101.043 75.1171L99.9718 75.7108L89.1647 81.701L88.0937 82.2947C87.7812 82.4683 87.5493 82.7608 87.4489 83.1079C87.3484 83.4551 87.3876 83.8285 87.5579 84.1463L95.854 99.5929C96.0249 99.9103 96.3128 100.146 96.6545 100.248C96.9962 100.35 97.3638 100.31 97.6767 100.137L97.679 100.136L110.623 92.9609L110.626 92.9596C110.938 92.786 111.17 92.4935 111.271 92.1464C111.371 91.7992 111.332 91.4258 111.162 91.108L102.865 75.6614C102.695 75.344 102.407 75.1085 102.065 75.0064C101.723 74.9043 101.356 74.9442 101.043 75.1171Z" fill="white"/>
<path d="M101.347 79.4781C101.307 79.404 101.239 79.349 101.159 79.3251C101.079 79.3012 100.993 79.3103 100.92 79.3504L100.489 79.5904L96.0919 82.0273C96.0192 82.0681 95.9653 82.1366 95.942 82.2176C95.9187 82.2987 95.928 82.3859 95.9678 82.46C96.0076 82.5342 96.0746 82.5893 96.1543 82.6134C96.234 82.6375 96.3198 82.6286 96.3931 82.5886L101.221 79.9118C101.294 79.8709 101.348 79.8024 101.372 79.7212C101.395 79.64 101.386 79.5527 101.347 79.4781Z" fill="#E6E6E6"/>
<path d="M102.991 79.7931C102.972 79.7563 102.945 79.7239 102.913 79.6977C102.881 79.6714 102.844 79.6519 102.805 79.6403C102.765 79.6286 102.724 79.625 102.683 79.6297C102.642 79.6344 102.603 79.6472 102.567 79.6676L96.6011 82.974C96.565 82.9941 96.5331 83.0213 96.5072 83.0539C96.4814 83.0865 96.4622 83.124 96.4506 83.1641C96.439 83.2043 96.4354 83.2464 96.4398 83.288C96.4443 83.3296 96.4567 83.3699 96.4765 83.4066C96.4963 83.4433 96.523 83.4757 96.5551 83.502C96.5872 83.5282 96.6241 83.5478 96.6636 83.5595C96.7032 83.5713 96.7446 83.575 96.7855 83.5705C96.8265 83.566 96.8662 83.5533 96.9023 83.5332L97.1798 83.3791L98.9154 82.4171H98.9176L102.866 80.2267C102.902 80.2069 102.935 80.1799 102.961 80.1473C102.987 80.1146 103.006 80.077 103.018 80.0367C103.03 79.9963 103.034 79.954 103.029 79.9121C103.024 79.8703 103.012 79.8298 102.991 79.7931Z" fill="#E6E6E6"/>
<path d="M96.508 85.0631L94.614 81.5343C94.5943 81.4988 94.5617 81.4727 94.5232 81.4616C94.4846 81.4504 94.4433 81.4552 94.4082 81.4748L93.4894 81.9834L93.0127 82.2475L90.4536 83.6652L89.9574 83.9404C89.9225 83.9604 89.8968 83.9936 89.8858 84.0327C89.8748 84.0719 89.8795 84.1138 89.8989 84.1495L90.0202 84.3762L91.7927 87.6783C91.812 87.7136 91.8443 87.7396 91.8824 87.7507C91.9206 87.7619 91.9616 87.7572 91.9964 87.7377L95.0518 86.0449L95.5285 85.7807L96.4472 85.2722C96.4648 85.2626 96.4804 85.2495 96.4929 85.2338C96.5055 85.2181 96.5149 85.2 96.5206 85.1805C96.5262 85.1611 96.528 85.1407 96.5258 85.1205C96.5237 85.1004 96.5176 85.0808 96.508 85.0631Z" fill="#E6E6E6"/>
<path d="M103.741 83.9558C103.701 83.8817 103.634 83.8267 103.555 83.8028C103.475 83.7788 103.389 83.788 103.316 83.8281L96.768 87.4582C96.7101 87.4903 96.6638 87.5402 96.6354 87.6006C96.607 87.6611 96.598 87.7291 96.6098 87.795C96.6144 87.8291 96.6254 87.862 96.6424 87.8918C96.6589 87.9222 96.6801 87.9497 96.7052 87.9733L96.7073 87.9755C96.7558 88.0198 96.8166 88.0478 96.8814 88.0557C96.9462 88.0635 97.0117 88.0509 97.0692 88.0195L103.618 84.3895C103.654 84.3693 103.686 84.342 103.712 84.3093C103.737 84.2766 103.757 84.239 103.768 84.1987C103.78 84.1584 103.783 84.1162 103.778 84.0745C103.774 84.0328 103.761 83.9925 103.741 83.9558Z" fill="#E6E6E6"/>
<path d="M105.388 84.2705C105.368 84.2338 105.341 84.2014 105.309 84.1752C105.277 84.149 105.24 84.1296 105.2 84.1179C105.161 84.1063 105.119 84.1027 105.078 84.1073C105.037 84.112 104.997 84.1248 104.961 84.1451L97.275 88.4047C97.2172 88.4357 97.1707 88.4847 97.1422 88.5445C97.1138 88.6043 97.1049 88.6718 97.1168 88.7371V88.7393C97.1214 88.7734 97.1324 88.8063 97.1493 88.8361C97.166 88.8677 97.188 88.896 97.2143 88.9198C97.2623 88.965 97.3232 88.9937 97.3882 89.0016C97.4532 89.0095 97.519 88.9963 97.5762 88.9638L105.262 84.7042C105.335 84.6634 105.39 84.5949 105.413 84.5137C105.437 84.4324 105.428 84.345 105.388 84.2705Z" fill="#E6E6E6"/>
<path d="M94.5746 90.9915C95.3107 90.9915 95.9074 90.3854 95.9074 89.6376C95.9074 88.8899 95.3107 88.2837 94.5746 88.2837C93.8385 88.2837 93.2419 88.8899 93.2419 89.6376C93.2419 90.3854 93.8385 90.9915 94.5746 90.9915Z" fill="#E6E6E6"/>
<path d="M104.683 68.6892L103.779 69.1904L92.6383 75.3655L91.734 75.8667C91.2953 76.1106 90.9696 76.5213 90.8286 77.0088C90.6875 77.4962 90.7425 78.0206 90.9816 78.4669L99.2777 93.9134C99.5178 94.3592 99.922 94.69 100.402 94.8333C100.882 94.9766 101.398 94.9207 101.837 94.6778L101.84 94.6765L114.784 87.5016L114.786 87.5003C115.225 87.2564 115.551 86.8457 115.692 86.3582C115.833 85.8708 115.778 85.3464 115.539 84.9001L107.243 69.4536C107.003 69.0078 106.598 68.677 106.118 68.5337C105.639 68.3904 105.122 68.4463 104.683 68.6892Z" fill="#CCCCCC"/>
<path d="M104.943 69.1735L103.872 69.7672L93.0652 75.7574L91.9942 76.3511C91.6817 76.5247 91.4498 76.8172 91.3494 77.1643C91.2489 77.5115 91.2881 77.8849 91.4584 78.2027L99.7545 93.6492C99.9254 93.9666 100.213 94.2022 100.555 94.3043C100.897 94.4063 101.264 94.3665 101.577 94.1936L101.579 94.1923L114.524 87.0173L114.526 87.016C114.839 86.8423 115.071 86.5498 115.171 86.2027C115.271 85.8556 115.232 85.4822 115.062 85.1644L106.766 69.7178C106.595 69.4004 106.307 69.1648 105.965 69.0628C105.624 68.9607 105.256 69.0006 104.943 69.1735Z" fill="white"/>
<path d="M105.247 73.5344C105.207 73.4603 105.14 73.4053 105.06 73.3814C104.98 73.3575 104.894 73.3666 104.82 73.4067L102.597 74.6395L101.977 74.9829L99.9924 76.0836C99.9197 76.1244 99.8658 76.1929 99.8425 76.274C99.8193 76.355 99.8285 76.4422 99.8683 76.5163C99.9081 76.5905 99.9751 76.6456 100.055 76.6697C100.135 76.6938 100.22 76.6849 100.294 76.6449L102.634 75.3483L103.124 75.0754L105.122 73.9681C105.195 73.9272 105.249 73.8587 105.272 73.7775C105.296 73.6963 105.287 73.6089 105.247 73.5344Z" fill="#CCCCCC"/>
<path d="M106.892 73.8493C106.872 73.8126 106.846 73.7802 106.814 73.7539C106.782 73.7277 106.745 73.7082 106.705 73.6965C106.666 73.6849 106.624 73.6813 106.584 73.686C106.543 73.6906 106.503 73.7035 106.467 73.7238L103.366 75.4431L102.89 75.7073L100.502 77.0303C100.465 77.0504 100.434 77.0775 100.408 77.1101C100.382 77.1427 100.363 77.1802 100.351 77.2204C100.34 77.2605 100.336 77.3026 100.34 77.3442C100.345 77.3858 100.357 77.4262 100.377 77.4629C100.397 77.4996 100.423 77.532 100.456 77.5582C100.488 77.5844 100.525 77.604 100.564 77.6157C100.604 77.6275 100.645 77.6312 100.686 77.6267C100.727 77.6222 100.767 77.6095 100.803 77.5894L103.191 76.2664L103.668 76.0023L106.766 74.283C106.803 74.2632 106.835 74.2362 106.861 74.2035C106.887 74.1709 106.907 74.1333 106.919 74.0929C106.93 74.0526 106.934 74.0102 106.929 73.9684C106.925 73.9266 106.912 73.8861 106.892 73.8493Z" fill="#CCCCCC"/>
<path d="M100.408 79.1194L98.8981 76.3061L98.6381 75.8218L98.5145 75.5907C98.4948 75.5552 98.4622 75.5291 98.4236 75.518C98.3851 75.5068 98.3438 75.5116 98.3087 75.5312L95.2425 77.2307L93.8578 77.9968C93.823 78.0168 93.7972 78.05 93.7863 78.0891C93.7753 78.1283 93.78 78.1702 93.7993 78.2059L93.9228 78.4348L94.0572 78.688L94.1829 78.9191V78.9213L95.6932 81.7347C95.7125 81.7699 95.7448 81.796 95.7829 81.8071C95.8211 81.8182 95.8621 81.8136 95.8969 81.7941L100.348 79.3286C100.365 79.319 100.381 79.3059 100.393 79.2902C100.406 79.2745 100.415 79.2563 100.421 79.2369C100.427 79.2174 100.428 79.197 100.426 79.1769C100.424 79.1567 100.418 79.1372 100.408 79.1194Z" fill="#00BFA6"/>
<path d="M107.642 78.0121C107.602 77.938 107.535 77.883 107.455 77.859C107.376 77.8351 107.29 77.8442 107.217 77.8844L105.26 78.9697L104.783 79.2338L102.894 80.2795L100.668 81.5145C100.632 81.5345 100.6 81.5617 100.574 81.5944C100.548 81.627 100.529 81.6646 100.517 81.7049C100.506 81.7451 100.502 81.7873 100.506 81.8291C100.511 81.8708 100.523 81.9113 100.543 81.9481C100.563 81.985 100.589 82.0175 100.621 82.0439C100.654 82.0703 100.691 82.0899 100.73 82.1018C100.77 82.1136 100.811 82.1175 100.852 82.113C100.894 82.1085 100.933 82.0959 100.97 82.0758L105.085 79.7952L105.561 79.531L107.518 78.4457C107.554 78.4256 107.586 78.3983 107.612 78.3656C107.638 78.3328 107.657 78.2952 107.669 78.255C107.68 78.2147 107.684 78.1725 107.679 78.1308C107.674 78.0891 107.662 78.0488 107.642 78.0121Z" fill="#CCCCCC"/>
<path d="M109.289 78.3269C109.269 78.2902 109.242 78.2578 109.21 78.2316C109.177 78.2054 109.14 78.186 109.101 78.1743C109.061 78.1627 109.02 78.1591 108.978 78.1637C108.937 78.1684 108.898 78.1812 108.862 78.2014L105.769 79.9163L105.293 80.1805L101.176 82.4611C101.139 82.4811 101.107 82.5081 101.081 82.5408C101.055 82.5734 101.036 82.6109 101.024 82.6511C101.012 82.6914 101.009 82.7336 101.013 82.7753C101.017 82.8171 101.03 82.8575 101.05 82.8943C101.069 82.9312 101.096 82.9636 101.129 82.9899C101.161 83.0162 101.198 83.0357 101.237 83.0474C101.277 83.0591 101.319 83.0628 101.36 83.0581C101.401 83.0534 101.441 83.0406 101.477 83.0202L105.592 80.7396L106.069 80.4755L109.163 78.7606C109.236 78.7198 109.29 78.6513 109.314 78.5701C109.337 78.4888 109.328 78.4014 109.289 78.3269Z" fill="#CCCCCC"/>
<path d="M98.4751 85.0478C99.2111 85.0478 99.8078 84.4416 99.8078 83.6939C99.8078 82.9461 99.2111 82.34 98.4751 82.34C97.739 82.34 97.1423 82.9461 97.1423 83.6939C97.1423 84.4416 97.739 85.0478 98.4751 85.0478Z" fill="#CCCCCC"/>
<path d="M99.3704 91.3057C99.5947 91.3282 99.817 91.3685 100.035 91.4265L115.149 77.8053L114.172 72.9187L121.239 70.4564L123.796 78.9363C124.003 79.6214 123.985 80.356 123.746 81.03C123.507 81.704 123.059 82.2809 122.469 82.6741L103.254 95.4903C103.282 96.3721 103.046 97.2417 102.576 97.9835C102.106 98.7254 101.424 99.3043 100.622 99.6432C99.8207 99.9821 98.9363 100.065 98.087 99.8809C97.2377 99.6968 96.4636 99.2543 95.8679 98.6124C95.2722 97.9704 94.8829 97.1595 94.7519 96.2873C94.6209 95.4151 94.7544 94.5231 95.1347 93.7299C95.5149 92.9367 96.1238 92.28 96.8804 91.8469C97.6371 91.4139 98.5055 91.2251 99.3704 91.3057Z" fill="#FFB8B8"/>
<path d="M125.554 71.6765L121.272 63.3686C120.831 62.105 119.924 61.0648 118.743 60.4676C117.561 59.8704 116.198 59.7629 114.94 60.1678C114.892 60.181 114.847 60.1964 114.799 60.214C113.524 60.6667 112.478 61.6147 111.891 62.85C111.303 64.0852 111.222 65.5068 111.666 66.8027L113.384 75.9846C113.433 76.2474 113.538 76.4964 113.69 76.7145C113.843 76.9325 114.04 77.1146 114.268 77.2482C114.518 77.3964 114.799 77.481 115.087 77.4947C115.325 77.51 115.563 77.4763 115.787 77.3957L116.706 77.0699L122.604 74.983L124.533 74.3006C124.782 74.2122 125.009 74.0704 125.199 73.885C125.389 73.6995 125.537 73.4746 125.634 73.2257C125.731 72.9767 125.774 72.7095 125.76 72.4422C125.746 72.1749 125.676 71.9137 125.554 71.6765Z" fill="#00BFA6"/>
<path d="M141.718 103.722H0.216694C0.159223 103.722 0.104106 103.699 0.0634679 103.657C0.02283 103.616 0 103.56 0 103.502C0 103.443 0.02283 103.387 0.0634679 103.346C0.104106 103.305 0.159223 103.281 0.216694 103.281H141.718C141.775 103.281 141.83 103.305 141.871 103.346C141.911 103.387 141.934 103.443 141.934 103.502C141.934 103.56 141.911 103.616 141.871 103.657C141.83 103.699 141.775 103.722 141.718 103.722Z" fill="#3F3D56"/>
<path d="M24.5939 99.6493V99.7594C24.5946 100.506 24.8086 101.236 25.2098 101.861C25.611 102.486 26.1821 102.98 26.854 103.282C27.336 103.5 27.8581 103.613 28.386 103.612H63.382V99.6493H24.5939Z" fill="#3F3D56"/>
<path d="M87.8164 73.5345C87.261 72.3699 86.406 71.3795 85.3417 70.6683C84.8594 70.3439 84.3389 70.0821 83.7924 69.889C83.0478 69.6249 82.2647 69.4902 81.476 69.4906H47.8884C46.0213 69.4928 44.2313 70.2473 42.911 71.5885C41.5907 72.9298 40.8481 74.7482 40.8459 76.645V96.4573C40.8453 96.7354 40.8612 97.0133 40.8936 97.2895C40.9412 97.7024 41.0238 98.1105 41.1406 98.509C41.2564 98.9016 41.4057 99.2832 41.587 99.6493C42.1703 100.84 43.0692 101.842 44.1824 102.542C45.2957 103.242 46.5792 103.612 47.8884 103.612H81.476C82.4009 103.612 83.3168 103.427 84.1714 103.068C85.026 102.708 85.8025 102.182 86.4566 101.517C87.1106 100.853 87.6293 100.064 87.9831 99.1956C88.3369 98.3275 88.5189 97.397 88.5185 96.4573V76.645C88.5201 75.5675 88.28 74.5037 87.8164 73.5345Z" fill="#3F3D56"/>
<path d="M66.5241 88.3123C67.4815 88.3123 68.2576 87.5239 68.2576 86.5512C68.2576 85.5786 67.4815 84.7902 66.5241 84.7902C65.5667 84.7902 64.7905 85.5786 64.7905 86.5512C64.7905 87.5239 65.5667 88.3123 66.5241 88.3123Z" fill="white"/>
</g>
<defs>
<clipPath id="clip0">
<rect width="155" height="133" fill="white"/>
</clipPath>
</defs>
</svg>
